# xmcd
#
# Track frame offsets:
#	183
#	11583
#	25225
#	34210
#	48075
#	65493
#	87563
#	105333
#	121078
#	134208
#	146698
#	160350
#	177483
#	192443
#	209058
#	228448
#	237960
#	254748
#	263583
#	278203
#
# Disc length: 3905 seconds
#
# Revision: 1
# Processed by: cddbd v1.4PL0 Copyright (c) Steve Scherf et al.
# Submitted via: CDmax 1.8
#
DISCID=2d0f3f14
DTITLE=Fesaci - Od ostrova k poste (1975 - 1983)
DYEAR=1991
DGENRE=Country
TTITLE0=Ostrov Fesaku
TTITLE1=Pojedou
TTITLE2=Matterhorn
TTITLE3=Slida
TTITLE4=Pani ma se ma
TTITLE5=Ranni ticho
TTITLE6=Lojza a Liza
TTITLE7=Co na Fesaky neplati
TTITLE8=Jaro
TTITLE9=Kousek lasky
TTITLE10=Prodavac
TTITLE11=Sefe
TTITLE12=Pisne vlaku
TTITLE13=Zvony
TTITLE14=Co dest by nesmyl
TTITLE15=Ja tajne cvicim
TTITLE16=Muz s hlasem medovym
TTITLE17=Posta Fesaci 1
TTITLE18=Dialog 2000
TTITLE19=Od ni
EXTD=Panton 81 1049-2
EXTT0=
EXTT1=
EXTT2=
EXTT3=
EXTT4=
EXTT5=
EXTT6=
EXTT7=
EXTT8=
EXTT9=
EXTT10=
EXTT11=
EXTT12=
EXTT13=
EXTT14=
EXTT15=
EXTT16=
EXTT17=
EXTT18=
EXTT19=
PLAYORDER=
